<svg width="78" height="151" viewBox="0 0 78 151" fill="none" xmlns="http://www.w3.org/2000/svg">
<path d="M22.3136 116.559C21.7893 116.652 21.2759 116.799 20.7814 116.997C9.76227 121.402 9.94612 150.237 9.94612 150.237H6.70207C6.70207 150.237 5.68064 137.862 1.22925 120.208C-2.78087 104.324 13.6662 90.0882 17.0062 87.3887C17.3821 87.0881 17.5905 86.9286 17.5905 86.9286C34.156 93.0228 22.3136 116.559 22.3136 116.559Z" fill="#90B0ED"/>
<path opacity="0.2" d="M18.7958 87.4296C18.4138 87.2538 18.0195 87.0861 17.6007 86.9327C17.6007 86.9327 17.3964 87.0922 17.0164 87.3928C13.6764 90.0923 -2.77066 104.328 1.23947 120.212C5.69085 137.866 6.70207 150.237 6.70207 150.237H8.52633C8.52633 150.237 7.51512 137.862 3.05353 120.208C-0.940256 104.397 15.3474 90.215 18.7958 87.4296Z" fill="white"/>
<path d="M76.9681 120.212C72.5065 137.866 71.5014 150.237 71.5014 150.237H68.2513C68.2513 150.237 68.4555 120.101 56.6621 116.737C56.4067 116.66 56.1468 116.6 55.8838 116.555C55.8838 116.555 44.0353 93.0187 60.6069 86.9286C60.6069 86.9286 60.7744 87.0534 61.0768 87.2967C64.1472 89.7569 81.0232 104.144 76.9681 120.212Z" fill="#90B0ED"/>
<path opacity="0.1" d="M22.3136 116.559C21.7893 116.652 21.2759 116.799 20.7814 116.997C18.7892 107.237 17.5273 97.3411 17.0062 87.3928C17.3821 87.0922 17.5905 86.9327 17.5905 86.9327C34.156 93.0228 22.3136 116.559 22.3136 116.559Z" fill="black"/>
<path opacity="0.1" d="M61.0829 87.3008C60.4074 97.2202 58.9311 107.069 56.6683 116.749C56.4129 116.673 56.1529 116.612 55.89 116.567C55.89 116.567 44.0414 93.031 60.6131 86.9409C60.6069 86.9327 60.7744 87.0575 61.0829 87.3008Z" fill="black"/>
<path d="M55.0177 121.021C53.8737 125.54 52.5329 130.175 50.9953 134.928C50.9953 134.928 43.6982 142.537 26.0724 134.928C26.0724 134.928 24.3115 129.958 22.3749 121.51C18.1114 102.935 12.9982 67.5375 23.8927 31.1787C27.137 20.2485 31.7482 9.77262 37.6166 0C37.6166 0 46.9239 10.6976 53.7552 31.1726C60.5865 51.6475 64.9337 81.9039 55.0177 121.021Z" fill="#E3E8F4"/>
<path d="M39.0977 74.6911C47.1792 74.6911 53.7306 68.1326 53.7306 60.0424C53.7306 51.9522 47.1792 45.3938 39.0977 45.3938C31.0161 45.3938 24.4647 51.9522 24.4647 60.0424C24.4647 68.1326 31.0161 74.6911 39.0977 74.6911Z" fill="#90B0ED"/>
<path d="M49.4754 60.0506C49.4753 62.0179 48.9173 63.9447 47.8662 65.607C46.8151 67.2692 45.3141 68.5985 43.5379 69.4403C41.7616 70.282 39.7832 70.6015 37.8326 70.3617C35.8821 70.1219 34.0397 69.3326 32.5197 68.0856C31.7778 67.474 31.1234 66.7631 30.5749 65.973C30.3286 65.6201 30.1048 65.252 29.9048 64.8708C29.1265 63.3836 28.7206 61.7295 28.722 60.0506C28.722 59.9668 28.722 59.885 28.722 59.8032C28.7752 57.5816 29.5378 55.4354 30.898 53.6792C32.2582 51.9231 34.1446 50.6492 36.2806 50.0442C37.0962 49.8192 37.9355 49.6915 38.781 49.6638H39.0915C40.4547 49.663 41.8047 49.9311 43.0643 50.4527C44.324 50.9743 45.4687 51.7392 46.4329 52.7038C47.3972 53.6683 48.1622 54.8136 48.6842 56.0742C49.2063 57.3348 49.4751 58.686 49.4754 60.0506Z" fill="#6C63FF"/>
<path d="M53.7531 31.1726C37.1508 39.1298 23.8825 31.1726 23.8825 31.1726C27.1305 20.244 31.7451 9.77018 37.6166 0C37.6166 0 46.9238 10.6976 53.7531 31.1726Z" fill="#90B0ED"/>
<path d="M55.0176 121.021C54.2414 124.081 53.3765 127.193 52.4232 130.357C51.9711 131.866 51.4944 133.388 50.9932 134.922C50.9932 134.922 43.6961 142.531 26.0704 134.922C26.0704 134.922 25.4984 133.308 24.6404 130.357C23.9989 128.128 23.2002 125.14 22.3667 121.504C22.3667 121.504 28.9283 124.308 38.2417 124.308C43.9952 124.328 49.696 123.211 55.0176 121.021V121.021Z" fill="#90B0ED"/>
<path d="M52.4232 130.357C51.9711 131.866 51.4944 133.388 50.9932 134.922C50.9932 134.922 43.6961 142.531 26.0704 134.922C26.0704 134.922 25.4984 133.308 24.6404 130.357C24.6383 130.357 42.6032 135.531 52.4232 130.357Z" fill="#E3E8F4"/>
<path opacity="0.2" d="M36.2867 50.0299L36.2642 50.0463L28.7261 59.7888C28.7261 59.8706 28.7261 59.9524 28.7261 60.0363C28.7247 61.7152 29.1306 63.3693 29.9089 64.8565L38.7912 49.6495L36.2867 50.0299Z" fill="white"/>
<path opacity="0.2" d="M38.6932 58.8236L32.5197 68.0774C31.7778 67.4658 31.1234 66.7549 30.5749 65.9649L37.9292 58.0628L38.6932 58.8236Z" fill="white"/>
<path opacity="0.2" d="M30.0152 134.924C30.0152 134.924 28.2542 129.952 26.3176 121.506C22.0541 102.929 16.9409 67.5314 27.8354 31.1726C30.7639 21.3347 34.7971 11.8609 39.8576 2.93258C38.4746 0.991841 37.6105 0.00204086 37.6105 0.00204086C31.7411 9.77181 27.1286 20.245 23.8825 31.1726C12.9879 67.5314 18.1012 102.929 22.3647 121.506C24.3013 129.952 26.0622 134.924 26.0622 134.924C33.0263 137.928 38.3766 138.558 42.3029 138.222C38.9486 137.967 34.8751 137.02 30.0152 134.924Z" fill="white"/>
</svg>
